<?xml version="1.0" encoding="utf-8"?>
<!-- Generator: Adobe Illustrator 27.4.1, SVG Export Plug-In . SVG Version: 6.00 Build 0)  -->
<svg version="1.1" id="Capa_1" xmlns="http://www.w3.org/2000/svg" xmlns:xlink="http://www.w3.org/1999/xlink" x="0px" y="0px"
	 viewBox="0 0 595.28 578" style="enable-background:new 0 0 595.28 578;" xml:space="preserve">
<style type="text/css">
	.st0{stroke:#000000;stroke-width:0.75;stroke-miterlimit:10;}
	.st1{font-family:'TimesNewRomanPSMT';}
	.st2{font-size:28.1647px;}
	.st3{stroke:#000000;stroke-linecap:round;stroke-miterlimit:10;}
</style>
<g>
	<path d="M555.45,314.4v3.78h-69.23v-3.78h5.72c6.67,0,11.52-1.67,14.54-5.01c1.91-2.18,2.86-7.43,2.86-15.74V204.1
		c0-7.02-0.52-11.65-1.55-13.9c-0.79-1.7-2.42-3.17-4.88-4.4c-3.5-1.64-7.15-2.45-10.96-2.45h-5.72v-3.78h69.23v3.78h-5.84
		c-6.59,0-11.4,1.67-14.42,5.01c-1.99,2.18-2.98,7.43-2.98,15.74v89.55c0,7.02,0.52,11.65,1.55,13.9c0.79,1.7,2.46,3.17,5,4.4
		c3.42,1.64,7.03,2.45,10.84,2.45H555.45z"/>
	<path d="M482.17,314.4v3.78h-69.23v-3.78h5.72c6.67,0,11.52-1.67,14.54-5.01c1.91-2.18,2.86-7.43,2.86-15.74V204.1
		c0-7.02-0.52-11.65-1.55-13.9c-0.79-1.7-2.42-3.17-4.88-4.4c-3.5-1.64-7.15-2.45-10.96-2.45h-5.72v-3.78h69.23v3.78h-5.84
		c-6.59,0-11.4,1.67-14.42,5.01c-1.99,2.18-2.98,7.43-2.98,15.74v89.55c0,7.02,0.52,11.65,1.55,13.9c0.79,1.7,2.46,3.17,5,4.4
		c3.42,1.64,7.03,2.45,10.84,2.45H482.17z"/>
	<text transform="matrix(0.9962 0 0 1 190.0837 342.3401)" class="st0 st1 st2">ARQUITECTURA Y REDES II</text>
	<path d="M384.82,308.67c-5.48-3-12.03-9.06-19.66-18.2l-33.36-39.76c13.58-2.59,23.61-7.02,30.08-13.29
		c6.47-6.27,9.71-13.66,9.71-22.18c0-7.97-2.84-14.84-8.52-20.6c-5.68-5.76-12.59-9.71-20.73-11.86
		c-8.14-2.15-20.79-3.22-37.95-3.22h-19.44c-3.47,0.58-6.73,1.35-9.88,2.79c-3.82,1.74-5.8,3.51-7.59,6.16
		c-0.17,0.44-0.41,0.87-0.69,1.27v0.06l-50.14,100.64c-4.93,10.02-9.41,16.66-13.46,19.93c-1.99,1.64-6.36,2.96-13.11,3.99v3.78
		h50.88v-3.78c-7.79-0.48-12.85-1.52-15.19-3.12c-2.34-1.6-3.52-3.46-3.52-5.57c0-2.66,1.35-6.68,4.05-12.06l8.05-16.07h34.41v16.07
		c0,7.91-0.83,12.92-2.5,15.03c-2.94,3.82-7.83,5.73-14.66,5.73h-6.08v3.78h69.23v-3.78h-6.31c-6.04,0-10.57-1.5-13.58-4.5
		c-2.22-2.11-3.34-7.53-3.34-16.25v-40.28c1.27,0.07,2.5,0.12,3.69,0.15c1.19,0.03,2.3,0.05,3.34,0.05c2.54,0,5.84-0.07,9.89-0.2
		l54.69,64.81h43.13v-3.78C397.45,313.58,390.3,311.67,384.82,308.67z M268.77,267.94h-29.63l-0.01,0.02l1.85-3.75h-0.03l1.83-3.65
		l0,0l25.98-51.75V267.94z M298.2,247.03c-0.71,0-1.63-0.02-2.74-0.05c-1.11-0.03-2.42-0.05-3.93-0.05v-57.65
		c7.86-1.29,14.1-1.94,18.71-1.94c10.41,0,18.77,2.71,25.08,8.13s9.47,12.46,9.47,21.11c0,8.86-3.91,16.15-11.74,21.88
		C325.23,244.17,313.61,247.03,298.2,247.03z"/>
</g>
<path class="st3" d="M84.2,147.41c3.63-9.57,7.68-18.95,12.28-27.95c3.16-6.16,6.24-12.55,9.65-18.7
	c-13.66,10.88-26.06,22.91-37.05,35.91C74.11,140.29,79.13,143.9,84.2,147.41z"/>
<path class="st3" d="M30.01,314.4c7.89,5.11,16.45,7.9,25.38,10.68c1.1,0.34,2.21,0.68,3.31,1.02c-0.57-18.76-1.05-37.51-0.41-56.27
	c0.28-8.09,0.83-16.12,1.66-24.11c-13.35-7.77-25.27-17.55-35.29-29.49c-6.62,20.82-10.17,42.75-10.17,65.4
	c0,8.01,0.44,15.93,1.31,23.74C20.66,308.12,25.24,311.31,30.01,314.4z"/>
<path class="st3" d="M61.48,406.99c-0.46-4.68-0.86-9.37-1.15-14.07c-0.9-14.58-0.61-29.21-0.98-43.81
	c-0.1-4.13-0.22-8.27-0.35-12.4c-3.86-1.2-7.71-2.41-11.55-3.66c-7.69-2.5-14.99-5.22-21.84-9.58c-2.71-1.73-5.36-3.58-8.04-5.38
	c5.31,30.97,17.31,60.04,34.65,86.1C55.33,405.07,58.41,406.01,61.48,406.99z"/>
<path class="st3" d="M58.4,233.28c0.93,0.61,1.88,1.19,2.83,1.77c1.9-13.93,4.67-27.72,8.37-41.42c3.28-12.15,6.9-24.45,11.1-36.54
	c-6.02-4.13-11.95-8.41-17.88-12.68c-14.47,18.58-26.08,38.97-34.29,60.69C36.75,216.17,46.83,225.73,58.4,233.28z"/>
<path class="st3" d="M169.1,94.11c1.68-4.16,3.42-8.28,5.23-12.33c4.27-9.55,9.84-18.4,15.41-27.24
	c-20.55,7.35-39.87,16.76-57.66,27.89C143.55,88.31,156.47,91.71,169.1,94.11z"/>
<path class="st3" d="M128.68,171.67c4.7,1.68,9.45,3.11,14.24,4.32c4.42-14.9,8.32-29.99,13-44.8c2.9-9.19,6.07-18.49,9.52-27.65
	c-0.88-0.17-1.75-0.35-2.63-0.53c-12.94-2.73-26.05-6.68-37.74-13.06c-0.81,1.1-1.6,2.19-2.36,3.24
	c-7.3,10.14-12.79,21.84-18.42,32.96c-4.38,8.64-8.22,17.68-11.67,26.92C103.96,160.45,115.76,167.05,128.68,171.67z"/>
<path class="st3" d="M128.31,258.81c-0.09-9.78,0.12-19.55,1.45-29.28c2.04-14.97,5.97-29.56,10.29-44.01
	c-5.26-1.34-10.48-2.91-15.66-4.77c-12.58-4.53-24.12-10.88-35.21-18.01c-4.38,12.92-8.07,26.09-11.38,39.02
	c-3.28,12.8-5.62,25.66-7.19,38.62C88.61,249.71,108.19,255.16,128.31,258.81z"/>
<path class="st3" d="M70.45,394.76c0.35,5.21,0.82,10.41,1.37,15.6c8.01,2.66,16.01,5.37,24.12,7.76
	c8.92,2.63,18.04,4.95,27.28,6.15c3.9,0.51,7.84,0.85,11.78,1.14c-2.61-11.89-4.28-23.85-4.95-36.18
	c-0.59-11.03-0.76-22.1-0.89-33.16c-9.84-2.25-19.64-4.71-29.38-7.43c-10.23-2.85-20.48-5.81-30.68-8.87
	c0.15,5.26,0.3,10.51,0.4,15.77C69.76,368.63,69.57,381.7,70.45,394.76z"/>
<path class="st3" d="M137.44,435.45c-0.27-0.02-0.55-0.04-0.82-0.06c-16.95-1.3-32.99-4.32-49.23-9.42
	c-4.78-1.5-9.53-3.08-14.28-4.66c0.5,3.91,1.02,7.81,1.57,11.71c22.52,24.91,50.47,45.94,82.3,61.77
	c-9.22-17.63-13.8-38.32-18.89-56.83C137.86,437.11,137.66,436.28,137.44,435.45z"/>
<path class="st3" d="M113.45,341.98c5.18,1.35,10.38,2.61,15.59,3.82c-0.03-2.79-0.07-5.59-0.12-8.38
	c-0.33-18.38-0.17-36.76-0.25-55.14c-0.02-4.53-0.11-9.07-0.2-13.6c-16.03-2.81-31.87-6.65-47.03-12.59
	c-4.07-1.6-8.05-3.36-11.93-5.26c-0.79,8.76-1.25,17.57-1.42,26.45c-0.33,17.31,0.17,34.62,0.7,51.92
	C83.6,333.72,98.49,338.09,113.45,341.98z"/>
<path class="st3" d="M481.7,95.05c-2.35,0.75-4.71,1.46-7.07,2.12c5.85,14.99,10.51,30.44,15.45,45.75
	c2.99,9.27,6.16,18.43,9.19,27.61h50.95C533.25,141.59,509.87,115.97,481.7,95.05z"/>
<path class="st3" d="M515.4,429.47c3.39-0.67,6.78-1.38,10.15-2.16c19.28-22.65,34.2-48.27,43.64-75.93h-27.03
	c-4.77,3.89-10.26,6.08-16.06,7.48c0.05,2.08,0.1,4.16,0.13,6.24c0.2,13.5-0.19,26.51-3.3,39.72
	C520.96,413.21,518.36,421.4,515.4,429.47z"/>
<path class="st3" d="M511.14,440.46c-0.56,1.38-1.13,2.77-1.71,4.15c1.58-1.55,3.14-3.11,4.67-4.69
	C513.11,440.1,512.13,440.28,511.14,440.46z"/>
<path class="st3" d="M404.56,98.69c0.09-0.01,0.18-0.02,0.27-0.03c18.77-2.34,37.68-4.3,56.12-8.39c-1.94-4.22-3.99-8.44-5.84-12.74
	c-22.6-13.14-47.5-23.53-74.06-30.62c3.94,9.6,10.51,18.65,14.02,27.95C398.09,82.85,401.33,90.77,404.56,98.69z"/>
<path class="st3" d="M464.93,99.63c-18.53,4.27-37.58,6.35-56.5,8.65c2.76,6.92,5.44,13.88,7.86,20.94
	c4.59,13.36,7.74,27.23,10.04,41.3h62.57c-4.52-13.26-8.87-26.56-13.3-39.85C472.15,120.3,468.94,109.81,464.93,99.63z"/>
<path class="st3" d="M333.93,104.88c20.33-0.76,40.48-2.62,60.69-4.99c-3.99-10.53-8.1-21.11-13.26-30.93
	c-4.12-7.85-9.01-16.11-11.64-24.84c-19.49-4.44-39.81-7.12-60.71-7.84c5.4,11.94,9.83,24.32,14,36.73
	C326.58,83.65,330.31,94.25,333.93,104.88z"/>
<path class="st3" d="M398.29,109.56c-1.03,0.13-2.05,0.26-3.08,0.4c-19.26,2.6-38.6,4.12-57.97,4.82c1.17,3.54,2.33,7.09,3.45,10.65
	c4.65,14.76,8.36,29.79,10.69,45.09h64.32c-3.43-19.1-8.35-37.85-15.58-56.22C399.5,112.73,398.9,111.15,398.29,109.56z"/>
<path class="st3" d="M321.81,105.21c0.54-0.01,1.08-0.03,1.63-0.04c-7.64-23.28-14.82-47.09-25.51-69.09c-0.1,0-0.19,0-0.29,0
	c-7.58,0-15.08,0.27-22.51,0.78c-6.84,22.32-15.55,44.08-22.86,66.25C275.41,104.76,298.61,105.54,321.81,105.21z"/>
<path class="st3" d="M327.41,117.04c-0.22-0.65-0.44-1.3-0.66-1.95c-25.86,0.53-51.76-0.38-77.57-2.28
	c-2.64,8.64-5.01,17.37-6.89,26.24c-2.22,10.44-4.04,20.95-5.72,31.48h104.76c-0.25-1.66-0.52-3.32-0.82-4.98
	C337.51,149.04,332.85,132.88,327.41,117.04z"/>
<path class="st3" d="M238.37,102.02c1.15,0.1,2.3,0.18,3.44,0.28c7.02-21.65,15.65-42.83,22.54-64.52
	c-20.71,2.11-40.74,6.14-59.83,11.91c-8.26,13.64-17.79,26.76-23.43,41.75c-0.56,1.48-1.12,2.96-1.68,4.44
	C198.91,98.91,218.73,100.31,238.37,102.02z"/>
<path class="st3" d="M226.3,110.89c-16.86-1.59-33.79-2.85-50.52-5.51c-5.15,13.52-10.15,27.08-13.76,41.1
	c-2.73,10.61-6.05,21.13-9.32,31.67c5.08,0.97,10.21,1.74,15.4,2.32c5.96,0.67,12.1,0.58,18.2,0.72v-10.67h40.21
	c2.4-15.6,5.09-31.14,8.96-46.45c1.03-4.05,2.15-8.08,3.34-12.08C234.64,111.64,230.47,111.28,226.3,110.89z"/>
<path class="st3" d="M186.3,266.09v-74.64c-1.41-0.01-2.83-0.01-4.25-0.02c-6.46-0.06-12.85-0.78-19.25-1.61
	c-4.4-0.57-8.74-1.28-13.04-2.12c-5.37,17.74-10.11,35.64-11.26,54.19c-0.38,6.15-0.46,12.35-0.41,18.55
	C154.1,262.91,170.34,264.46,186.3,266.09z"/>
<path class="st3" d="M139.13,347.16c0.01,0.3,0.01,0.6,0.02,0.89c19.97,4.29,40.11,7.66,60.35,10.52c0.05-2.4,0.09-4.8,0.15-7.2
	H186.3v-75.35c-8.24-0.88-16.48-1.74-24.71-2.7c-7.77-0.91-15.57-1.89-23.35-3.07c0.18,7.96,0.45,15.91,0.45,23.81
	C138.7,311.78,138.76,329.47,139.13,347.16z"/>
<path class="st3" d="M145.47,426.12c2.12,0.14,4.24,0.3,6.35,0.48c15.83,1.35,31.72,3.08,47.28,6.39
	c-0.04-21.42-0.07-42.87,0.23-64.31c-20.13-2.75-40.17-6.12-60.02-10.35c0.15,12.8,0.23,25.61,1.24,38.38
	C141.34,406.78,143.18,416.47,145.47,426.12z"/>
<path class="st3" d="M199.31,443.24c-3.68-0.8-7.36-1.56-11.07-2.21c-13.3-2.35-26.76-3.66-40.22-4.74
	c0.48,1.82,0.97,3.65,1.46,5.48c5.5,20.38,10.86,43.64,24.25,60.71c15.31,6.47,31.41,11.76,48.11,15.78
	c-2.83-11.49-9.86-22.45-14.26-32.99C201.98,471.82,199.92,457.61,199.31,443.24z"/>
<path class="st3" d="M220.61,361.39c37.41,4.7,74.79,5.14,112.42,5.7c4.54,0.07,9.09,0.16,13.64,0.27
	c0.04-5.33,0.06-10.65,0.06-15.98H209.67c-0.06,2.86-0.11,5.71-0.16,8.57C213.21,360.45,216.91,360.93,220.61,361.39z"/>
<path class="st3" d="M252.69,443.76c29.67,3.79,59.2,2.59,88.89,1.95c0.79-3.21,1.49-6.45,2.09-9.72
	c3.09-17.06,2.51-34.98,2.8-52.27c0.04-2.12,0.05-4.24,0.08-6.36c-7.65-0.17-15.3-0.32-22.94-0.36
	c-38.32-0.19-76.2-2.21-114.23-6.99c-0.1,8.64-0.15,17.27-0.16,25.91c-0.02,13.06-0.43,26.21-0.18,39.3
	C223.51,438.52,237.88,441.86,252.69,443.76z"/>
<path class="st3" d="M291.58,456.66c-17.48-0.43-34.91-2.03-52.18-4.79c-10.13-1.62-20.07-4.02-30.02-6.35
	c0.02,0.4,0.03,0.8,0.05,1.2c0.87,15.76,4.89,29.95,11.62,44.14c4.45,9.39,9.65,19.34,11.41,29.77c20.92,4.28,42.74,6.55,65.17,6.55
	c5.69,0,11.33-0.16,16.94-0.45c6.09-24.26,17.08-47.08,24.27-71.02C323.09,456.13,307.36,457.04,291.58,456.66z"/>
<path class="st3" d="M428.86,366.33c0.05-4.98,0.07-9.96,0.04-14.95h-72.19c0,5.41-0.03,10.82-0.07,16.22
	C380.74,368.21,404.92,368.73,428.86,366.33z"/>
<path class="st3" d="M358.63,445.44c18.26-0.14,36.55-0.17,54.77-1.66c3.54-0.29,7.08-0.66,10.61-1.07
	c0.8-5.92,1.41-11.88,1.96-17.83c1.51-16.14,2.36-32.34,2.73-48.58c-23.97,2.31-48.07,1.86-72.15,1.29
	c-0.09,6.92-0.21,13.84-0.39,20.75c-0.41,15.92-0.83,31.62-4.27,47.17C354.13,445.48,356.38,445.45,358.63,445.44z"/>
<path class="st3" d="M400.95,454.58c-17.2,0.86-34.43,0.74-51.65,0.94c-6.85,23.89-17.74,46.54-24.21,70.51
	c27.22-2.27,53.31-7.89,77.72-16.37c1.06-2.84,2.1-5.68,3.18-8.52c3.32-8.69,7.61-16.95,10.67-25.73
	c2.59-7.42,4.41-15.02,5.79-22.72C415.31,453.54,408.16,454.22,400.95,454.58z"/>
<path class="st3" d="M438.7,365.15c1.3-0.18,2.61-0.34,3.91-0.54c18.44-2.8,36.33-7.39,54.57-11.22c4.79-1.01,10.28-1.39,15.78-2
	h-74.3C438.71,355.97,438.72,360.56,438.7,365.15z"/>
<path class="st3" d="M463.77,437.28c13.44-1.72,26.94-3.45,40.34-5.73c5.13-13.12,9.35-26.53,11.32-40.43
	c1.41-9.95,1.31-20.28,0.9-30.49c-5.88,0.82-11.83,1.39-17.45,2.61c-20.1,4.35-39.86,9.27-60.27,11.94
	c-0.36,22.15-1.68,44.27-4.44,66.25C444.04,440.08,453.9,438.54,463.77,437.28z"/>
<path class="st3" d="M453.24,448.64c-6.85,0.9-13.67,1.88-20.49,2.78c-2.01,12.16-5.05,24-9.85,35.47
	c-2.54,6.08-5.22,12.05-7.66,18.15c28.29-11.22,54.08-26.36,76.44-44.62c2.69-5.98,5.4-11.99,7.98-18.05
	C484.22,444.8,468.66,446.6,453.24,448.64z"/>
</svg>
